<svg width="100" height="100" xmlns="http://www.w3.org/2000/svg" xml:space="preserve" enable-background="new 0 0 100 100" version="1.1">

 <g>
  <title>Layer 1</title>
  <path id="svg_2" d="m46,59.9c1.8,1.2 3,3.2 3,5.5c0,4.1 -3.7,7.3 -8,6.4c-2.5,-0.5 -4.5,-2.5 -5,-5c-0.6,-2.9 0.7,-5.5 2.8,-6.9l0,-5.7l-11.5,0l0,23.2c0,2.1 1.7,3.9 3.9,3.9l22.7,0c2.1,0 3.9,-1.7 3.9,-3.9l0,-23.2l-11.8,0l0,5.7z" fill="#ffbad6"/>
  <path id="svg_3" d="m51.7,89.2l-18.3,0c-2.4,0 -4.3,-1.9 -4.3,-4.3l0,-3.6c0,-1 0.8,-1.8 1.8,-1.8l23.3,0c1,0 1.8,0.8 1.8,1.8l0,3.6c0.1,2.4 -1.9,4.3 -4.3,4.3zm-19,-6.1l0,1.7c0,0.3 0.3,0.6 0.6,0.6l18.4,0c0.3,0 0.6,-0.3 0.6,-0.6l0,-1.7l-19.6,0z" fill="#222"/>
  <path id="svg_4" d="m62.7,76l-4.9,0c-1,0 -1.8,-0.8 -1.8,-1.8l0,-21.9c0,-1 0.8,-1.8 1.8,-1.8l4.9,0c3.1,0 5.5,2.5 5.5,5.5l0,14.4c0.1,3.1 -2.4,5.6 -5.5,5.6zm-3.1,-3.7l3.1,0c1,0 1.8,-0.8 1.8,-1.8l0,-14.5c0,-1 -0.8,-1.8 -1.8,-1.8l-3.1,0l0,18.1z" fill="#222"/>
  <path id="svg_5" d="m54.5,83.1l-23.9,0c-2.8,0 -5.2,-2.3 -5.2,-5.2l0,-33.1c0,-1 0.8,-1.8 1.8,-1.8l11.6,0c1,0 1.8,0.8 1.8,1.8l0,15.2c0,0.6 -0.3,1.2 -0.8,1.5c-1.3,0.9 -2.1,2.4 -2.1,3.9c0,2.6 2.1,4.7 4.7,4.7s4.7,-2.1 4.7,-4.7c0,-1.6 -0.8,-3.1 -2.1,-3.9c-0.5,-0.3 -0.8,-0.9 -0.8,-1.5l0,-15.2c0,-1 0.8,-1.8 1.8,-1.8l11.7,0c1,0 1.8,0.8 1.8,1.8l0,33.2c0.1,2.8 -2.2,5.1 -5,5.1zm-25.3,-36.5l0,31.4c0,0.8 0.7,1.5 1.5,1.5l23.9,0c0.8,0 1.5,-0.7 1.5,-1.5l0,-31.4l-8,0l0,12.4c1.9,1.6 3,3.9 3,6.4c0,4.6 -3.8,8.4 -8.4,8.4s-8.4,-3.8 -8.4,-8.4c0,-2.5 1.1,-4.8 3,-6.4l0,-12.4l-8.1,0z" fill="#222"/>
  <path id="svg_6" d="m42.5,73.8c-0.6,0 -1.2,-0.1 -1.8,-0.2c-3.2,-0.7 -5.8,-3.2 -6.4,-6.4c-0.7,-3.1 0.4,-6.2 2.7,-8.2l0,-12.4l-7.9,0l0,4.8c0,2.9 -2.4,5.3 -5.3,5.3c-2.9,0 -5.3,-2.4 -5.3,-5.3l0,-9.3c-2.4,-3.3 -2.6,-7.7 -0.7,-11.6c1.6,-3.1 4.7,-5.1 8.2,-5.4c1.2,-2.6 3.9,-4.4 6.8,-4.4c1.2,0 2.4,0.3 3.5,0.9c2.5,-2 5.5,-3.1 8.8,-3.1c6.3,0 11.8,4.2 13.5,10.1c4.1,1.3 6.8,5.3 6.4,9.6c-0.4,4.7 -4.6,8.4 -9.4,8.4l-7.7,0l0,12.4c1.9,1.6 3,3.9 3,6.4c0,2.5 -1.1,4.9 -3.1,6.5c-1.5,1.3 -3.4,1.9 -5.3,1.9zm-15.2,-30.9l11.6,0c1,0 1.8,0.8 1.8,1.8l0,15.2c0,0.6 -0.3,1.2 -0.8,1.5c-1.7,1.1 -2.4,3 -2,5c0.4,1.8 1.8,3.2 3.6,3.6c1.5,0.3 2.9,0 4,-0.9c1.1,-0.9 1.7,-2.2 1.7,-3.7c0,-1.6 -0.8,-3.1 -2.1,-3.9c-0.5,-0.3 -0.8,-0.9 -0.8,-1.5l0,-15.2c0,-1 0.8,-1.8 1.8,-1.8l9.5,0c3,0 5.5,-2.2 5.7,-5c0.3,-2.9 -1.8,-5.5 -4.6,-5.9c-0.8,-0.1 -1.4,-0.7 -1.5,-1.5c-1,-4.8 -5.2,-8.3 -10.2,-8.3c-2.8,0 -5.4,1.1 -7.3,3c-0.7,0.7 -1.8,0.7 -2.5,0.1c-0.5,-0.4 -1.3,-0.9 -2.4,-0.9c-1.8,0 -3.3,1.2 -3.7,3c-0.2,0.9 -1,1.5 -1.9,1.4c-2.6,-0.1 -5,1.2 -6.1,3.4c-1.4,2.7 -1.1,5.7 0.7,8c0.3,0.3 0.4,0.7 0.4,1.2l0,9.9c0,0.9 0.7,1.6 1.6,1.6c0.9,0 1.6,-0.7 1.6,-1.6l0,-6.6c0.1,-1.1 0.9,-1.9 1.9,-1.9z" fill="#222"/>
  <path id="svg_7" d="m37.5,54.8l-1.2,0c-0.3,0 -0.6,-0.3 -0.6,-0.6c0,-0.3 0.3,-0.6 0.6,-0.6l1.2,0c0.3,0 0.6,0.3 0.6,0.6c0,0.4 -0.3,0.6 -0.6,0.6zm-3.7,0c-0.3,0 -0.6,-0.3 -0.6,-0.6c0,-0.3 0.3,-0.6 0.6,-0.6c0.3,0 0.6,0.3 0.6,0.6c0,0.4 -0.2,0.6 -0.6,0.6zm-3.7,0l-1.2,0c-0.3,0 -0.6,-0.3 -0.6,-0.6c0,-0.3 0.3,-0.6 0.6,-0.6l1.2,0c0.3,0 0.6,0.3 0.6,0.6c0,0.4 -0.2,0.6 -0.6,0.6z" fill="#222"/>
  <path id="svg_8" d="m56.4,54.8l-1.2,0c-0.3,0 -0.6,-0.3 -0.6,-0.6c0,-0.3 0.3,-0.6 0.6,-0.6l1.2,0c0.3,0 0.6,0.3 0.6,0.6c0,0.4 -0.3,0.6 -0.6,0.6zm-3.7,0c-0.3,0 -0.6,-0.3 -0.6,-0.6c0,-0.3 0.3,-0.6 0.6,-0.6c0.3,0 0.6,0.3 0.6,0.6c0,0.4 -0.3,0.6 -0.6,0.6zm-3.7,0l-1.2,0c-0.3,0 -0.6,-0.3 -0.6,-0.6c0,-0.3 0.3,-0.6 0.6,-0.6l1.2,0c0.3,0 0.6,0.3 0.6,0.6c0,0.4 -0.3,0.6 -0.6,0.6z" fill="#222"/>
 </g>
</svg>